{"title":"The Heat 2013 TS XViD UNiQUE ","uid":8657903,"size":1508933721,"categoryP":"video","categoryS":"movies","magnet":"?xt=urn:btih:a596844f2cf489220593bce1fcfcce04d5cfd120&amp;dn=The+Heat+2013+TS+XViD+UNiQUE+&amp;tr=udp%3A%2F%2Ftracker.openbittorrent.com%3A80&amp;tr=udp%3A%2F%2Fopen.demonii.com%3A1337&amp;tr=udp%3A%2F%2Ftracker.coppersurfer.tk%3A6969&amp;tr=udp%3A%2F%2Fexodus.desync.com%3A6969","seeders":1,"leechers":0,"uploader":"srkfan","files":3,"time":1373251055,"description":" &lt;a href=&quot;http://img600.imageshack.us/img600/7572/9yyw.jpg&quot; rel=&quot;nofollow&quot; target=&quot;_NEW&quot;&gt;http://img600.imageshack.us/img600/7572/9yyw.jpg&lt;/a&gt;\n\nSource Used     One of the jeffs/ A FRiEND                  - Thanks\n\nFormat                                   : AVI\nFormat/Info                              : Audio Video Interleave\nFile size                                : 1.39 GiB\nDuration                                 : 1h 50mn\nOverall bit rate                         : 1 813 Kbps\nWriting application                      : VirtualDubMod 1.5.10.2 (build 2540/release)\nWriting library                          : VirtualDubMod build 2540/release\n\nVideo\nID                                       : 0\nFormat                                   : MPEG-4 Visual\nFormat profile                           : Advanced Simple@L5\nFormat settings, BVOP                    : 2\nFormat settings, QPel                    : No\nFormat settings, GMC                     : No warppoints\nFormat settings, Matrix                  : Default (H.263)\nMuxing mode                              : Packed bitstream\nCodec ID                                 : XVID\nCodec ID/Hint                            : XviD\nDuration                                 : 1h 50mn\nBit rate                                 : 1 666 Kbps\nWidth                                    : 720 pixels\nHeight                                   : 282 pixels\nDisplay aspect ratio                     : 2.553\nFrame rate                               : 29.970 fps\nColor space                              : YUV\nChroma subsampling                       : 4:2:0\nBit depth                                : 8 bits\nScan type                                : Progressive\nCompression mode                         : Lossy\nBits/(Pixel*Frame)                       : 0.164\nStream size                              : 1.28 GiB (92%)\nWriting library                          : XviD 64\n\nAudio\nID                                       : 1\nFormat                                   : MPEG Audio\nFormat version                           : Version 1\nFormat profile                           : Layer 3\nCodec ID                                 : 55\nCodec ID/Hint                            : MP3\nDuration                                 : 1h 50mn\nBit rate mode                            : Constant\nBit rate                                 : 128 Kbps\nChannel(s)                               : 2 channels\nSampling rate                            : 48.0 KHz\nCompression mode                         : Lossy\nStream size                              : 101 MiB (7%)\nAlignment                                : Split accross interleaves\nInterleave, duration                     : 20 ms (1.00 video frame)\nInterleave, preload duration             : 500 ms\n &lt;a href=&quot;\nhttp://www.imdb.com/title/tt2404463&quot; rel=&quot;nofollow&quot; target=&quot;_NEW&quot;&gt;\nhttp://www.imdb.com/title/tt2404463&lt;/a&gt;\n\n\nStoryline\n\nAshburn, an FBI agent is extremely ambitious and has her eye on a promotion but she doesn't get along with her co-workers. She is sent to Boston to find out who an elusive drug dealer is by getting to the man who is fronting for him and is told that she'll have a good shot at the promotion if she finds the dealer. When she arrives in Boston she learns that the dealer has been eliminating his competition and taking over their operations. She learns that a dealer is Boston PD custody and goes to see him to ask him what he knows about the dealer but is warned that the cop who arrested the dealer, Mullins is very territorial. And she is not exactly sociable. When the two meet they don't get along. When Mullins learns what Ashburn is in Boston for decides to find the dealer herself. Ahsburn is told by her boss to work with Mullins but won't be easy because Ashburn does things by the book while Mullins does things her way.\n &lt;a href=&quot;\nhttp://img10.imageshack.us/img10/2759/iqh.png&quot; rel=&quot;nofollow&quot; target=&quot;_NEW&quot;&gt;\nhttp://img10.imageshack.us/img10/2759/iqh.png&lt;/a&gt; &lt;a href=&quot;\nhttp://img402.imageshack.us/img402/4268/ti.png&quot; rel=&quot;nofollow&quot; target=&quot;_NEW&quot;&gt;\nhttp://img402.imageshack.us/img402/4268/ti.png&lt;/a&gt; &lt;a href=&quot;\nhttp://img845.imageshack.us/img845/6052/pm0w.png&quot; rel=&quot;nofollow&quot; target=&quot;_NEW&quot;&gt;\nhttp://img845.imageshack.us/img845/6052/pm0w.png&lt;/a&gt;","torrent":{"xt":"urn:btih:a596844f2cf489220593bce1fcfcce04d5cfd120","amp;dn":"The+Heat+2013+TS+XViD+UNiQUE+","amp;tr":["udp%3A%2F%2Ftracker.openbittorrent.com%3A80","udp%3A%2F%2Fopen.demonii.com%3A1337","udp%3A%2F%2Ftracker.coppersurfer.tk%3A6969","udp%3A%2F%2Fexodus.desync.com%3A6969"],"infoHash":"a596844f2cf489220593bce1fcfcce04d5cfd120","infoHashBuffer":{"type":"Buffer","data":[165,150,132,79,44,244,137,34,5,147,188,225,252,252,206,4,213,207,209,32]},"announce":[],"urlList":[]}}